<?xml version="1.0" encoding="UTF-8"?>
<svg width="48px" height="24px" viewBox="0 0 48 24" version="1.1" xmlns="http://www.w3.org/2000/svg" xmlns:xlink="http://www.w3.org/1999/xlink">
    <!-- Generator: Sketch 52.2 (67145) - http://www.bohemiancoding.com/sketch -->
    <title>Group 48</title>
    <desc>Created with Sketch.</desc>
    <defs>
        <polygon id="path-1" points="0 0.6336 4.3788 0.6336 4.3788 6.9996 0 6.9996"></polygon>
        <polygon id="path-3" points="0.851 0.9744 4.79 0.9744 4.79 6 0.851 6"></polygon>
        <polygon id="path-5" points="0.2069 0.719 4.2619 0.719 4.2619 4.3444 0.2069 4.3444"></polygon>
    </defs>
    <g id="Page-1" stroke="none" stroke-width="1" fill="none" fill-rule="evenodd">
        <g id="Group-48" transform="translate(0.000000, -1.000000)">
            <g id="Group-11" transform="translate(0.000000, 17.281400)">
                <g id="Group-3">
                    <mask id="mask-2" fill="white">
                        <use xlink:href="#path-1"></use>
                    </mask>
                    <g id="Clip-2"></g>
                    <path d="M4.3788,5.2046 C4.3788,4.3496 3.6658,3.8096 3.1188,3.6656 L3.1188,3.6476 C3.6038,3.5216 4.2028,3.0896 4.2028,2.2806 C4.2028,1.3526 3.4628,0.6336 1.8678,0.6336 C1.0748,0.6336 0.4048,0.7766 -0.0002,0.9936 L-0.0002,6.6446 C0.4098,6.8576 0.9918,6.9806 1.7278,6.9996 L2.1058,6.9996 C3.5128,6.9586 4.3788,6.3906 4.3788,5.2046 Z M1.3568,1.5236 C1.5158,1.4706 1.6648,1.4516 1.8768,1.4516 C2.5288,1.4516 2.8368,1.7496 2.8368,2.3786 C2.8368,3.0536 2.5378,3.3506 1.6388,3.3506 L1.3568,3.3506 L1.3568,1.5236 Z M1.3568,4.0526 L1.6388,4.0526 C2.6168,4.0526 2.9518,4.4136 2.9518,5.1496 C2.9518,5.8616 2.5638,6.1316 1.9028,6.1316 C1.6648,6.1316 1.4978,6.0946 1.3568,6.0406 L1.3568,4.0526 Z" id="Fill-1" fill="#1D1D1B" mask="url(#mask-2)"></path>
                </g>
                <path d="M7.348,2.982 L7.604,1.992 C6.326,1.928 5.586,2.073 5.058,2.334 L5.058,6.914 L6.432,6.914 L6.432,2.955 C6.661,2.847 7.014,2.838 7.348,2.982" id="Fill-4" fill="#1D1D1B"></path>
                <g id="Group-8" transform="translate(7.000000, 1.000000)">
                    <mask id="mask-4" fill="white">
                        <use xlink:href="#path-3"></use>
                    </mask>
                    <g id="Clip-7"></g>
                    <path d="M4.79,5.6444 L4.79,2.7464 C4.79,1.4334 3.997,0.9744 2.922,0.9744 C2.084,0.9744 1.468,1.1984 1.133,1.3434 L1.432,2.1434 C1.741,1.9994 2.208,1.8464 2.666,1.8464 C3.168,1.8464 3.503,1.9914 3.503,2.4954 L3.503,2.7204 C2.075,2.8544 0.851,3.2234 0.851,4.4744 C0.851,5.4404 1.5,5.9584 2.764,6.0004 L3.114,6.0004 C3.845,5.9804 4.424,5.8434 4.79,5.6444 M2.138,4.4204 C2.138,3.6464 2.674,3.4484 3.503,3.3674 L3.503,5.1314 C3.38,5.1944 3.204,5.2304 3.001,5.2304 C2.455,5.2304 2.138,4.9874 2.138,4.4204" id="Fill-6" fill="#1D1D1B" mask="url(#mask-4)"></path>
                </g>
                <path d="M13.7019,6.0323 C13.3579,6.0323 13.0319,5.8973 12.8559,5.7533 L12.5029,6.6443 C12.7939,6.8423 13.3139,6.9953 13.8959,6.9953 C15.0229,6.9953 15.7019,6.3113 15.7019,5.4653 C15.7019,4.8983 15.4909,4.4393 14.5739,4.0433 C14.2039,3.8813 13.9659,3.7013 13.9659,3.3773 C13.9659,3.0983 14.1509,2.8743 14.5119,2.8743 C14.8209,2.8743 15.0939,3.0083 15.2349,3.1253 L15.5699,2.3243 C15.1999,2.0903 14.7939,1.9743 14.2039,1.9743 C13.2519,1.9743 12.6179,2.6393 12.6179,3.4673 C12.6179,3.9713 12.8119,4.4663 13.6839,4.8173 C14.1249,4.9973 14.2919,5.1773 14.2919,5.5013 C14.2919,5.8073 14.0539,6.0323 13.7019,6.0323" id="Fill-9" fill="#1D1D1B"></path>
            </g>
            <polygon id="Fill-12" fill="#1D1D1B" points="16.371 24.1954 17.746 24.1954 17.746 19.3464 16.371 19.3464"></polygon>
            <polygon id="Fill-13" fill="#1D1D1B" points="18.662 24.1954 20.037 24.1954 20.037 17.1324 18.662 17.1324"></polygon>
            <path d="M17.7463,17.1227 C17.7463,17.1227 17.4223,17.2547 17.2733,17.3147 C17.0893,17.3887 16.9093,17.4577 16.7323,17.5247 C16.7323,17.5247 16.5183,17.6007 16.3713,17.6437 L16.3713,18.5517 L17.7463,18.5517 L17.7463,17.1227 Z" id="Fill-14" fill="#1D1D1B"></path>
            <polygon id="Fill-16" fill="#1D1D1B" points="20.9844 18.1812 20.9844 18.7172 22.1444 18.7172 22.1444 24.1322 22.9234 24.1322 22.9234 18.7172 24.0834 18.7172 24.0834 18.1812"></polygon>
            <path d="M25.961,19.3839 C24.886,19.3839 24.124,20.2049 24.124,21.7879 C24.124,23.4479 24.963,24.2179 26.156,24.2179 C26.775,24.2179 27.257,24.0709 27.537,23.8979 L27.342,23.3959 C27.105,23.5339 26.732,23.6639 26.216,23.6639 C25.395,23.6639 24.911,23.1449 24.827,22.0899 L27.698,21.6669 C27.714,20.1099 27.054,19.3839 25.961,19.3839 Z M24.801,21.6839 C24.784,20.4209 25.276,19.8769 25.936,19.8769 C26.588,19.8769 26.986,20.2919 26.986,21.3469 L24.801,21.6839 Z" id="Fill-17" fill="#1D1D1B"></path>
            <polygon id="Fill-19" fill="#1D1D1B" points="28.51 24.1324 29.255 24.1324 29.255 17.3434 28.51 17.3434"></polygon>
            <g id="Group-47" transform="translate(1.000000, 0.281400)">
                <path d="M30.9143,19.1025 C29.8393,19.1025 29.0773,19.9235 29.0773,21.5065 C29.0773,23.1665 29.9153,23.9365 31.1093,23.9365 C31.7273,23.9365 32.2103,23.7895 32.4903,23.6165 L32.2943,23.1145 C32.0573,23.2525 31.6853,23.3825 31.1683,23.3825 C30.3473,23.3825 29.8643,22.8635 29.7803,21.8085 L32.6513,21.3855 C32.6673,19.8285 32.0073,19.1025 30.9143,19.1025 Z M29.7543,21.4025 C29.7383,20.1395 30.2283,19.5955 30.8893,19.5955 C31.5413,19.5955 31.9393,20.0105 31.9393,21.0655 L29.7543,21.4025 Z" id="Fill-20" fill="#1D1D1B"></path>
                <path d="M35.1404,19.6297 C35.4794,19.6297 35.6824,19.7497 35.8174,19.8547 L35.9954,19.4137 C35.8514,19.2837 35.5464,19.1027 34.9874,19.1027 C33.9714,19.1027 33.2344,19.9847 33.2344,21.5147 C33.2344,23.0197 33.9714,23.9357 34.9704,23.9357 C35.4794,23.9357 35.8174,23.7887 35.9954,23.6247 L35.8094,23.1497 C35.6404,23.2707 35.4274,23.3737 35.1154,23.3737 C34.3774,23.3737 33.9884,22.6047 33.9884,21.4887 C33.9884,20.3997 34.3104,19.6297 35.1404,19.6297" id="Fill-22" fill="#1D1D1B"></path>
                <path d="M39.848,21.5238 C39.848,20.1308 39.314,19.1028 38.062,19.1028 C36.834,19.1028 36.283,20.1308 36.283,21.5238 C36.283,22.8898 36.825,23.9358 38.069,23.9358 C39.306,23.9358 39.848,22.8898 39.848,21.5238 Z M37.029,21.5238 C37.029,20.5808 37.198,19.5868 38.069,19.5868 C38.942,19.5868 39.103,20.5898 39.103,21.5238 C39.103,22.4578 38.942,23.4088 38.069,23.4088 C37.215,23.4088 37.029,22.4658 37.029,21.5238 Z" id="Fill-24" fill="#1D1D1B"></path>
                <path d="M45.0049,19.1025 C44.3699,19.1025 43.9049,19.3275 43.5909,19.6645 C43.3199,19.3185 42.8969,19.1025 42.1939,19.1025 C41.4649,19.1025 41.0249,19.2235 40.6099,19.4315 L40.6099,23.8505 L41.3549,23.8505 L41.3549,19.7505 C41.5999,19.6465 41.8039,19.5955 42.1769,19.5955 C42.8369,19.5955 43.1759,19.9415 43.1759,20.4605 L43.1759,23.8505 L43.9209,23.8505 L43.9209,20.0185 C44.1829,19.7335 44.4799,19.6035 44.8609,19.6035 C45.5219,19.6035 45.7419,20.0275 45.7419,20.4945 L45.7419,23.8505 L46.4869,23.8505 L46.4869,20.4775 C46.4869,19.8285 46.0979,19.1025 45.0049,19.1025" id="Fill-26" fill="#1D1D1B"></path>
                <path d="M7.6525,11.7272 C7.3645,11.9372 7.1005,12.1292 6.8545,12.3022 C6.4935,12.0232 6.1535,11.7352 5.8055,11.4152 C5.4505,11.1032 5.1215,10.7782 4.7855,10.4362 C4.9925,10.2252 5.2175,9.9952 5.4655,9.7412 C5.7185,9.4832 5.9745,9.2212 6.2695,8.9212 C6.6495,9.3082 7.0235,9.6662 7.4135,10.0252 C7.8075,10.3792 8.1805,10.7012 8.5705,11.0262 C8.2375,11.2842 7.9425,11.5102 7.6525,11.7272 M8.4055,9.1362 C7.9915,8.7612 7.6005,8.3762 7.2005,7.9692 C6.8015,7.5592 6.4245,7.1602 6.0575,6.7402 C5.7395,7.1072 5.4575,7.4352 5.1875,7.7522 C4.9135,8.0762 4.6735,8.3612 4.4465,8.6362 C4.2125,8.9152 4.0135,9.1602 3.8275,9.3952 C3.6335,9.6292 3.4765,9.8362 3.3235,10.0322 C3.6115,10.3752 3.9095,10.6932 4.2215,11.0112 C4.5395,11.3352 4.8455,11.6352 5.1805,11.9292 C5.5125,12.2282 5.8335,12.4942 6.1715,12.7622 C6.5055,13.0282 6.8335,13.2652 7.1675,13.4932 C7.3975,13.3712 7.6305,13.2442 7.8995,13.0802 C8.1655,12.9272 8.4415,12.7522 8.7415,12.5532 C9.0455,12.3552 9.3565,12.1392 9.6935,11.9012 C10.0355,11.6552 10.3735,11.4122 10.7505,11.1152 C10.3755,10.8292 10.0045,10.5262 9.6055,10.1922 C9.2045,9.8622 8.8165,9.5142 8.4055,9.1362" id="Fill-28" fill="#1D1D1B"></path>
                <path d="M2.5078,9.0205 C2.6408,8.8025 2.7848,8.5805 2.9578,8.3235 C3.1318,8.0655 3.3098,7.8035 3.5208,7.5075 C3.7288,7.2145 3.9538,6.9075 4.2068,6.5715 C4.4668,6.2305 4.7288,5.8915 5.0238,5.5145 C4.6958,5.1065 4.3998,4.7275 4.1198,4.3445 C3.8358,3.9555 3.5908,3.6125 3.3508,3.2645 C3.0878,3.6405 2.8508,3.9845 2.6248,4.3445 C2.8508,4.6955 3.0828,5.0445 3.3508,5.4235 C3.1158,5.7685 2.9118,6.0845 2.7118,6.3965 C2.5248,6.7055 2.3528,6.9875 2.1968,7.2555 C1.9558,6.9015 1.7508,6.5655 1.5498,6.2225 C1.4058,6.5095 1.2958,6.7615 1.1838,7.0085 C1.3768,7.3395 1.5678,7.6625 1.7918,8.0035 C2.0158,8.3455 2.2448,8.6755 2.5078,9.0205" id="Fill-30" fill="#1D1D1B"></path>
                <path d="M2.1591,9.6083 C1.9191,9.2813 1.6981,8.9703 1.4871,8.6443 C1.2771,8.3173 1.0911,8.0063 0.9131,7.6923 C0.8381,7.9033 0.7811,8.0963 0.7301,8.2803 C0.8941,8.5803 1.0731,8.8803 1.2691,9.1853 C1.2121,9.3523 1.1621,9.4993 1.1251,9.6363 C1.3121,9.9273 1.5081,10.2033 1.7171,10.4943 C1.7711,10.3683 1.8231,10.2443 1.9011,10.0963 C1.9751,9.9423 2.0571,9.7883 2.1591,9.6083" id="Fill-32" fill="#1D1D1B"></path>
                <path d="M6.5403,13.8036 C6.2253,13.5916 5.9163,13.3626 5.5963,13.1176 C5.2793,12.8666 4.9783,12.6116 4.6623,12.3386 C4.3543,12.0616 4.0593,11.7816 3.7643,11.4786 C3.4693,11.1776 3.1963,10.8806 2.9223,10.5616 C2.8083,10.7256 2.7043,10.8616 2.6153,10.9906 C2.5263,11.1206 2.4493,11.2286 2.3863,11.3326 C2.6253,11.6116 2.8673,11.8756 3.1203,12.1346 C3.2013,12.0536 3.2953,11.9576 3.4023,11.8496 C3.6743,12.1286 3.9513,12.3916 4.2423,12.6526 C4.5333,12.9136 4.8183,13.1436 5.1183,13.3826 C4.9683,13.4586 4.8453,13.5146 4.7293,13.5686 C5.0133,13.7846 5.2843,13.9826 5.5683,14.1736 C5.7033,14.1366 5.8463,14.0856 6.0103,14.0266 C6.1743,13.9676 6.3443,13.8936 6.5403,13.8036" id="Fill-34" fill="#1D1D1B"></path>
                <g id="Group-38" transform="translate(4.000000, 0.000000)">
                    <mask id="mask-6" fill="white">
                        <use xlink:href="#path-5"></use>
                    </mask>
                    <g id="Clip-37"></g>
                    <path d="M1.9749,4.3444 C2.3209,3.9264 2.6689,3.5214 3.0599,3.0874 C3.4479,2.6534 3.8419,2.2334 4.2619,1.8024 C3.8869,1.4194 3.5369,1.0614 3.2009,0.7184 C2.8029,1.1274 2.4249,1.5264 2.0579,1.9474 C1.7399,1.5804 1.4629,1.2584 1.1889,0.9344 C0.8409,1.3374 0.5189,1.7214 0.2069,2.1164 C0.4609,2.4554 0.7289,2.7964 1.0239,3.1744 C1.3269,3.5524 1.6359,3.9274 1.9749,4.3444" id="Fill-36" fill="#1D1D1B" mask="url(#mask-6)"></path>
                </g>
                <path d="M8.2621,6.8857 C8.6841,7.3147 9.0941,7.7177 9.5201,8.1127 C9.9441,8.5127 10.3481,8.8687 10.7511,9.2217 C11.1561,9.5677 11.5271,9.8897 11.8961,10.1927 C12.2961,9.8617 12.6861,9.5147 13.0981,9.1367 C13.5051,8.7567 13.8991,8.3777 14.3011,7.9687 C13.9601,7.6207 13.6181,7.2717 13.2401,6.8857 C12.8181,7.3147 12.4071,7.7177 11.9821,8.1127 C11.5841,7.7417 11.1831,7.3807 10.7511,6.9567 C10.3171,6.5477 9.8901,6.1217 9.4481,5.6747 C9.8691,5.2457 10.2931,4.8077 10.7511,4.3447 C10.2921,3.8727 9.8681,3.4427 9.4481,3.0137 C9.0011,3.4567 8.6031,3.8987 8.1921,4.3447 C7.7821,4.7867 7.4231,5.1927 7.0601,5.5997 C7.4481,6.0347 7.8421,6.4547 8.2621,6.8857" id="Fill-39" fill="#1D1D1B"></path>
                <path d="M16.037,9.7414 C15.783,9.4834 15.526,9.2214 15.232,8.9214 C14.855,9.3044 14.481,9.6704 14.09,10.0254 C13.698,10.3844 13.322,10.7074 12.931,11.0254 C13.266,11.2904 13.56,11.5094 13.849,11.7274 C14.137,11.9374 14.398,12.1304 14.648,12.3024 C15.004,12.0244 15.349,11.7344 15.696,11.4144 C15.473,11.2264 15.224,11.0154 14.954,10.7824 C15.328,10.4474 15.678,10.1054 16.037,9.7414" id="Fill-41" fill="#1D1D1B"></path>
                <path d="M11.8084,11.9008 C11.4354,12.1698 11.0944,12.4108 10.7514,12.6418 C10.4054,12.8668 10.0964,13.0738 9.7814,13.2518 C9.4734,13.4378 9.1864,13.5918 8.9114,13.7398 C8.6294,13.8868 8.3844,13.9998 8.1414,14.1148 C8.4644,14.2988 8.7684,14.4668 9.0744,14.6238 C9.3804,14.7748 9.6574,14.9058 9.9464,15.0258 C10.2044,14.9298 10.4624,14.8268 10.7514,14.7058 C10.4624,14.5778 10.1814,14.4428 9.8664,14.2798 C10.1514,14.1468 10.4394,14.0018 10.7514,13.8258 C11.0674,13.6548 11.3794,13.4678 11.7194,13.2518 C12.0324,13.4378 12.3104,13.5928 12.5904,13.7398 C12.9264,13.5348 13.2514,13.3268 13.6024,13.0798 C13.3354,12.9218 13.0644,12.7508 12.7604,12.5528 C12.4554,12.3548 12.1464,12.1388 11.8084,11.9008" id="Fill-43" fill="#1D1D1B"></path>
                <path d="M7.4721,14.3899 C7.2611,14.4649 7.0741,14.5309 6.8961,14.5789 C6.7161,14.6309 6.5631,14.6619 6.4071,14.6939 C6.6921,14.8579 6.9591,14.9959 7.2311,15.1269 C7.3951,15.1059 7.5661,15.0789 7.7601,15.0349 C8.0431,15.1739 8.3181,15.2869 8.5861,15.3979 C8.7921,15.3599 8.9961,15.3169 9.2251,15.2529 C8.9481,15.1439 8.6691,15.0219 8.3711,14.8709 C8.0791,14.7279 7.7811,14.5649 7.4721,14.3899" id="Fill-45" fill="#1D1D1B"></path>
            </g>
        </g>
    </g>
</svg>