<?xml version="1.0" encoding="UTF-8"?>
<svg width="48px" height="11px" viewBox="0 0 48 11" version="1.1" xmlns="http://www.w3.org/2000/svg" xmlns:xlink="http://www.w3.org/1999/xlink">
    <!-- Generator: Sketch 52.2 (67145) - http://www.bohemiancoding.com/sketch -->
    <title>Group 35</title>
    <desc>Created with Sketch.</desc>
    <defs>
        <polygon id="path-1" points="0.1683 0.1253 4.2213 0.1253 4.2213 5 0.1683 5"></polygon>
        <polygon id="path-3" points="0.3187 0.1803 4.2777 0.1803 4.2777 5 0.3187 5"></polygon>
        <polygon id="path-5" points="0.3674 0.1257 4.519 0.1257 4.519 4.9997 0.3674 4.9997"></polygon>
        <polygon id="path-7" points="0.1867 0.747 4.3397 0.747 4.3397 5.6219 0.1867 5.6219"></polygon>
    </defs>
    <g id="Page-1" stroke="none" stroke-width="1" fill="none" fill-rule="evenodd">
        <g id="Group-35" transform="translate(0.000000, -1.000000)">
            <path d="M13.01,6.3784 C12.602,6.3784 12.269,6.4254 12.013,6.5194 C11.757,6.6144 11.516,6.7864 11.291,7.0364 L12.05,7.7774 C12.177,7.6304 12.307,7.5284 12.438,7.4704 C12.57,7.4134 12.745,7.3834 12.964,7.3834 C13.282,7.3834 13.509,7.4434 13.646,7.5624 C13.783,7.6814 13.852,7.8724 13.852,8.1344 L13.852,8.3724 L12.726,8.3724 C12.196,8.3724 11.792,8.5014 11.515,8.7604 C11.237,9.0194 11.099,9.3514 11.099,9.7534 C11.099,10.1924 11.23,10.5494 11.492,10.8234 C11.772,11.1034 12.177,11.2434 12.708,11.2434 C12.977,11.2434 13.197,11.2094 13.372,11.1384 C13.545,11.0684 13.715,10.9514 13.879,10.7864 L13.879,11.1984 L15.041,11.1984 L15.041,8.0614 C15.041,6.9394 14.364,6.3784 13.01,6.3784 Z M13.852,9.4424 C13.852,9.7344 13.794,9.9364 13.678,10.0454 C13.58,10.1374 13.477,10.1984 13.367,10.2284 C13.257,10.2594 13.111,10.2744 12.928,10.2744 C12.702,10.2744 12.531,10.2254 12.415,10.1284 C12.3,10.0304 12.241,9.8964 12.241,9.7254 C12.241,9.3654 12.464,9.1864 12.91,9.1864 L13.852,9.1864 L13.852,9.4424 Z" id="Fill-1" fill="#1D1D1B"></path>
            <g id="Group-5" transform="translate(15.000000, 6.253000)">
                <mask id="mask-2" fill="white">
                    <use xlink:href="#path-1"></use>
                </mask>
                <g id="Clip-4"></g>
                <path d="M3.8643,2.4713 C3.6263,2.2303 3.2723,2.0883 2.8033,2.0453 L2.4283,2.0093 L2.0523,1.9723 C1.8633,1.9543 1.7343,1.9073 1.6643,1.8313 C1.5943,1.7543 1.5593,1.6643 1.5593,1.5613 C1.5593,1.4333 1.6153,1.3253 1.7283,1.2363 C1.8413,1.1483 2.0103,1.1033 2.2363,1.1033 C2.4673,1.1033 2.6783,1.1283 2.8673,1.1763 C3.0553,1.2263 3.2143,1.3083 3.3423,1.4233 L4.0743,0.6823 C3.8613,0.4813 3.6033,0.3383 3.3013,0.2533 C2.9993,0.1683 2.6503,0.1253 2.2543,0.1253 C1.7423,0.1253 1.3083,0.2593 0.9503,0.5273 C0.5943,0.7953 0.4163,1.1683 0.4163,1.6433 C0.4163,2.0633 0.5353,2.3813 0.7723,2.5943 C1.0103,2.8083 1.3543,2.9363 1.8063,2.9783 L2.1903,3.0153 L2.5563,3.0523 C2.7333,3.0703 2.8613,3.1163 2.9403,3.1893 C3.0203,3.2623 3.0593,3.3633 3.0593,3.4903 C3.0593,3.6553 2.9773,3.7793 2.8113,3.8613 C2.6473,3.9443 2.4493,3.9853 2.2183,3.9853 C1.9803,3.9853 1.7533,3.9543 1.5363,3.8933 C1.3193,3.8323 1.1233,3.7133 0.9463,3.5363 L0.1683,4.3133 C0.4433,4.5893 0.7403,4.7713 1.0613,4.8633 C1.3803,4.9543 1.7603,5.0003 2.1993,5.0003 C2.7913,5.0003 3.2763,4.8673 3.6533,4.6023 C4.0313,4.3373 4.2213,3.9513 4.2213,3.4443 C4.2213,3.0363 4.1013,2.7123 3.8643,2.4713" id="Fill-3" fill="#1D1D1B" mask="url(#mask-2)"></path>
            </g>
            <path d="M21.6447,8.2988 L21.2687,8.2618 L20.8947,8.2258 C20.7057,8.2068 20.5757,8.1608 20.5057,8.0848 C20.4357,8.0078 20.4007,7.9178 20.4007,7.8138 C20.4007,7.6858 20.4567,7.5778 20.5697,7.4898 C20.6817,7.4008 20.8517,7.3568 21.0777,7.3568 C21.3087,7.3568 21.5197,7.3818 21.7087,7.4298 C21.8977,7.4788 22.0567,7.5608 22.1847,7.6768 L22.9157,6.9358 C22.7027,6.7348 22.4447,6.5908 22.1427,6.5058 C21.8407,6.4208 21.4927,6.3788 21.0957,6.3788 C20.5837,6.3788 20.1487,6.5118 19.7927,6.7808 C19.4367,7.0488 19.2577,7.4208 19.2577,7.8958 C19.2577,8.3168 19.3767,8.6348 19.6137,8.8478 C19.8517,9.0608 20.1967,9.1888 20.6477,9.2318 L21.0317,9.2688 L21.3977,9.3048 C21.5737,9.3228 21.7027,9.3688 21.7817,9.4418 C21.8607,9.5148 21.9007,9.6158 21.9007,9.7438 C21.9007,9.9088 21.8177,10.0318 21.6537,10.1148 C21.4897,10.1968 21.2907,10.2378 21.0587,10.2378 C20.8217,10.2378 20.5937,10.2078 20.3787,10.1468 C20.1617,10.0858 19.9647,9.9668 19.7877,9.7898 L19.0107,10.5668 C19.2847,10.8418 19.5817,11.0238 19.9017,11.1158 C20.2227,11.2078 20.6017,11.2528 21.0407,11.2528 C21.6317,11.2528 22.1167,11.1198 22.4947,10.8548 C22.8727,10.5898 23.0617,10.2048 23.0617,9.6978 C23.0617,9.2898 22.9427,8.9648 22.7057,8.7248 C22.4687,8.4838 22.1127,8.3418 21.6447,8.2988" id="Fill-6" fill="#1D1D1B"></path>
            <g id="Group-10" transform="translate(23.000000, 6.253000)">
                <mask id="mask-4" fill="white">
                    <use xlink:href="#path-3"></use>
                </mask>
                <g id="Clip-9"></g>
                <path d="M3.0897,3.0613 C3.0897,3.3593 3.0117,3.5793 2.8567,3.7203 C2.7017,3.8593 2.5127,3.9303 2.2937,3.9303 C2.0807,3.9303 1.8967,3.8593 1.7407,3.7203 C1.5857,3.5793 1.5077,3.3593 1.5077,3.0613 L1.5077,0.1803 L0.3187,0.1803 L0.3187,3.2253 C0.3187,3.5063 0.3527,3.7563 0.4227,3.9753 C0.4937,4.1953 0.6197,4.3963 0.8027,4.5783 C1.0837,4.8603 1.4587,5.0003 1.9277,5.0003 C2.1537,5.0003 2.3697,4.9573 2.5767,4.8723 C2.7847,4.7873 2.9637,4.6653 3.1167,4.5063 L3.1167,4.9453 L4.2777,4.9453 L4.2777,0.1803 L3.0897,0.1803 L3.0897,3.0613 Z" id="Fill-8" fill="#1D1D1B" mask="url(#mask-4)"></path>
            </g>
            <path d="M31.3974,6.8126 C31.2434,6.6556 31.0814,6.5436 30.9104,6.4786 C30.7324,6.4116 30.5254,6.3786 30.2874,6.3786 C30.0444,6.3786 29.8134,6.4276 29.5954,6.5246 C29.3804,6.6216 29.2114,6.7436 29.0894,6.8906 L29.0894,6.4326 L27.9274,6.4326 L27.9274,11.1986 L29.1164,11.1986 L29.1164,8.3256 C29.1164,8.0456 29.1944,7.8296 29.3504,7.6766 C29.5054,7.5246 29.6834,7.4486 29.8854,7.4486 C30.0194,7.4486 30.1334,7.4696 30.2274,7.5126 C30.3234,7.5556 30.4194,7.6276 30.5164,7.7326 L31.1854,7.0556 L31.1654,7.0366 C31.2414,6.9526 31.3184,6.8786 31.3974,6.8126" id="Fill-11" fill="#1D1D1B"></path>
            <path d="M32.8855,6.3784 C32.4765,6.3784 32.1445,6.4254 31.8885,6.5194 C31.7175,6.5824 31.5545,6.6814 31.3975,6.8124 C31.4025,6.8174 31.4075,6.8214 31.4125,6.8264 L31.1855,7.0554 L31.9245,7.7774 C32.0525,7.6304 32.1815,7.5284 32.3145,7.4704 C32.4445,7.4134 32.6205,7.3834 32.8395,7.3834 C33.1565,7.3834 33.3835,7.4434 33.5205,7.5624 C33.6585,7.6814 33.7275,7.8724 33.7275,8.1344 L33.7275,8.3724 L32.6015,8.3724 C32.0715,8.3724 31.6675,8.5014 31.3895,8.7604 C31.1125,9.0194 30.9735,9.3514 30.9735,9.7534 C30.9735,10.1924 31.1045,10.5494 31.3665,10.8234 C31.6475,11.1034 32.0525,11.2434 32.5845,11.2434 C32.8525,11.2434 33.0725,11.2094 33.2465,11.1384 C33.4205,11.0684 33.5895,10.9514 33.7535,10.7864 L33.7535,11.1984 L34.9165,11.1984 L34.9165,8.0614 C34.9165,6.9394 34.2385,6.3784 32.8855,6.3784 Z M33.7275,9.4424 C33.7275,9.7344 33.6685,9.9364 33.5535,10.0454 C33.4555,10.1374 33.3525,10.1984 33.2425,10.2284 C33.1325,10.2594 32.9865,10.2744 32.8035,10.2744 C32.5765,10.2744 32.4055,10.2254 32.2915,10.1284 C32.1755,10.0304 32.1165,9.8964 32.1165,9.7254 C32.1165,9.3654 32.3385,9.1864 32.7855,9.1864 L33.7275,9.1864 L33.7275,9.4424 Z" id="Fill-13" fill="#1D1D1B"></path>
            <path d="M38.986,6.7989 C38.705,6.5189 38.331,6.3789 37.862,6.3789 C37.636,6.3789 37.419,6.4209 37.211,6.5059 C37.004,6.5909 36.824,6.7139 36.672,6.8719 L36.672,6.4329 L35.51,6.4329 L35.51,11.1989 L36.699,11.1989 L36.699,8.3169 C36.699,8.0179 36.777,7.7989 36.933,7.6589 C37.088,7.5179 37.275,7.4489 37.495,7.4489 C37.709,7.4489 37.893,7.5179 38.048,7.6589 C38.204,7.7989 38.282,8.0179 38.282,8.3169 L38.282,11.1989 L39.471,11.1989 L39.471,8.1519 C39.471,7.8719 39.435,7.6219 39.365,7.4029 C39.295,7.1829 39.169,6.9819 38.986,6.7989" id="Fill-15" fill="#1D1D1B"></path>
            <path d="M42.3608,10.096 C42.2448,10.154 42.1108,10.183 41.9588,10.183 C41.6778,10.183 41.4518,10.079 41.2818,9.872 C41.1048,9.653 41.0168,9.299 41.0168,8.811 C41.0168,8.329 41.1048,7.978 41.2818,7.759 C41.4518,7.551 41.6778,7.448 41.9588,7.448 C42.1108,7.448 42.2448,7.477 42.3608,7.535 C42.4768,7.593 42.5988,7.689 42.7268,7.823 L43.5318,7.018 C43.3248,6.799 43.0928,6.637 42.8368,6.533 C42.5808,6.43 42.2878,6.378 41.9588,6.378 C41.6958,6.378 41.4418,6.417 41.1938,6.497 C40.9478,6.576 40.7208,6.707 40.5138,6.89 C40.3058,7.073 40.1398,7.325 40.0138,7.645 C39.8898,7.964 39.8278,8.354 39.8278,8.811 C39.8278,9.268 39.8898,9.657 40.0138,9.977 C40.1398,10.298 40.3058,10.55 40.5138,10.737 C40.7208,10.922 40.9478,11.055 41.1938,11.134 C41.4418,11.214 41.6958,11.253 41.9588,11.253 C42.5928,11.253 43.1178,11.037 43.5318,10.603 L42.7268,9.808 C42.5988,9.942 42.4768,10.038 42.3608,10.096" id="Fill-17" fill="#1D1D1B"></path>
            <g id="Group-21" transform="translate(43.000000, 6.253000)">
                <mask id="mask-6" fill="white">
                    <use xlink:href="#path-5"></use>
                </mask>
                <g id="Clip-20"></g>
                <path d="M4.5194,2.4027 C4.5194,1.7317 4.3354,1.1847 3.9664,0.7607 C3.5974,0.3367 3.0894,0.1257 2.4434,0.1257 C1.8154,0.1257 1.3124,0.3377 0.9344,0.7657 C0.5554,1.1927 0.3674,1.7897 0.3674,2.5577 C0.3674,3.0217 0.4264,3.4137 0.5454,3.7327 C0.6644,4.0537 0.8254,4.3047 1.0304,4.4887 C1.2344,4.6707 1.4664,4.8017 1.7254,4.8807 C1.9844,4.9607 2.2674,4.9997 2.5714,4.9997 C2.9804,4.9997 3.3184,4.9407 3.5874,4.8227 C3.8554,4.7027 4.1204,4.5117 4.3824,4.2507 L3.6604,3.5457 C3.5014,3.7047 3.3444,3.8187 3.1884,3.8887 C3.0334,3.9587 2.8304,3.9947 2.5804,3.9947 C2.2574,3.9947 2.0024,3.8967 1.8164,3.7007 C1.6304,3.5067 1.5384,3.2497 1.5384,2.9337 L4.5194,2.9337 L4.5194,2.4027 Z M1.5384,2.1187 C1.5444,2.0157 1.5544,1.9257 1.5694,1.8497 C1.5854,1.7727 1.6104,1.6927 1.6474,1.6067 C1.7144,1.4547 1.8164,1.3337 1.9534,1.2457 C2.0914,1.1577 2.2544,1.1127 2.4434,1.1127 C2.6384,1.1127 2.8034,1.1577 2.9364,1.2457 C3.0714,1.3337 3.1724,1.4547 3.2394,1.6067 C3.2764,1.6927 3.3014,1.7727 3.3164,1.8497 C3.3324,1.9257 3.3424,2.0157 3.3484,2.1187 L1.5384,2.1187 Z" id="Fill-19" fill="#1D1D1B" mask="url(#mask-6)"></path>
            </g>
            <path d="M6.4863,8.7438 C6.4273,8.6848 6.3513,8.6558 6.2583,8.6558 C6.1663,8.6558 6.0923,8.6848 6.0343,8.7438 C5.9903,8.7858 5.9623,8.8408 5.9483,8.9108 C5.9333,8.9788 5.9273,9.0648 5.9273,9.1658 C5.9273,9.2668 5.9333,9.3518 5.9483,9.4208 C5.9623,9.4888 5.9903,9.5458 6.0343,9.5878 C6.0943,9.6488 6.1693,9.6788 6.2583,9.6788 C6.3503,9.6788 6.4253,9.6488 6.4863,9.5878 C6.5283,9.5458 6.5573,9.4888 6.5713,9.4208 C6.5853,9.3518 6.5923,9.2668 6.5923,9.1658 C6.5923,9.0648 6.5853,8.9788 6.5713,8.9108 C6.5573,8.8408 6.5283,8.7858 6.4863,8.7438" id="Fill-22" fill="#1D1D1B"></path>
            <g id="Group-26" transform="translate(11.000000, 0.253000)">
                <mask id="mask-8" fill="white">
                    <use xlink:href="#path-7"></use>
                </mask>
                <g id="Clip-25"></g>
                <path d="M1.3577,3.5549 C1.3577,3.8719 1.4507,4.1279 1.6367,4.3229 C1.8237,4.5189 2.0777,4.6159 2.4007,4.6159 C2.6507,4.6159 2.8537,4.5809 3.0077,4.5109 C3.1647,4.4409 3.3207,4.3269 3.4807,4.1679 L4.2027,4.8719 C3.9407,5.1339 3.6747,5.3249 3.4067,5.4439 C3.1377,5.5619 2.7997,5.6219 2.3907,5.6219 C2.0857,5.6219 1.8047,5.5829 1.5447,5.5029 C1.2857,5.4239 1.0537,5.2929 0.8497,5.1099 C0.6457,4.9269 0.4837,4.6759 0.3647,4.3549 C0.2467,4.0349 0.1867,3.6429 0.1867,3.1799 C0.1867,2.4119 0.3757,1.8139 0.7537,1.3869 C1.1317,0.9599 1.6347,0.7469 2.2637,0.7469 C2.9097,0.7469 3.4167,0.9589 3.7857,1.3829 C4.1557,1.8059 4.3397,2.3539 4.3397,3.0239 L4.3397,3.5549 L1.3577,3.5549 Z M3.1367,2.4709 C3.1217,2.3949 3.0957,2.3139 3.0587,2.2289 C2.9917,2.0769 2.8907,1.9559 2.7577,1.8669 C2.6227,1.7789 2.4587,1.7349 2.2637,1.7349 C2.0737,1.7349 1.9107,1.7789 1.7737,1.8669 C1.6367,1.9559 1.5347,2.0769 1.4667,2.2289 C1.4307,2.3139 1.4047,2.3949 1.3897,2.4709 C1.3737,2.5469 1.3637,2.6379 1.3577,2.7409 L3.1687,2.7409 C3.1627,2.6379 3.1517,2.5469 3.1367,2.4709 Z" id="Fill-24" fill="#1D1D1B" mask="url(#mask-8)"></path>
            </g>
            <path d="M18.4952,5.82 L18.4952,5.381 C18.3422,5.54 18.1632,5.662 17.9542,5.747 C17.7482,5.833 17.5312,5.875 17.3062,5.875 C16.8362,5.875 16.4612,5.735 16.1812,5.454 C15.9982,5.271 15.8712,5.07 15.8012,4.851 C15.7312,4.631 15.6962,4.381 15.6962,4.101 L15.6962,1.055 L16.8842,1.055 L16.8842,3.936 C16.8842,4.235 16.9632,4.454 17.1182,4.595 C17.2732,4.735 17.4582,4.805 17.6722,4.805 C17.8912,4.805 18.0782,4.735 18.2342,4.595 C18.3902,4.454 18.4672,4.235 18.4672,3.936 L18.4672,1.055 L19.6572,1.055 L19.6572,5.82 L18.4952,5.82 Z" id="Fill-27" fill="#1D1D1B"></path>
            <path d="M22.8941,2.354 C22.7971,2.25 22.7011,2.177 22.6061,2.134 C22.5121,2.092 22.3971,2.07 22.2631,2.07 C22.0621,2.07 21.8851,2.146 21.7281,2.299 C21.5721,2.452 21.4951,2.668 21.4951,2.948 L21.4951,5.82 L20.3061,5.82 L20.3061,1.055 L21.4671,1.055 L21.4671,1.512 C21.5901,1.366 21.7591,1.244 21.9751,1.146 C22.1921,1.049 22.4211,1 22.6661,1 C22.9031,1 23.1111,1.034 23.2881,1.1 C23.4641,1.167 23.6321,1.284 23.7911,1.448 L22.8941,2.354 Z" id="Fill-29" fill="#1D1D1B"></path>
            <path d="M27.2163,4.5442 C27.1403,4.8272 26.9983,5.0762 26.7903,5.2892 C26.6253,5.4602 26.4203,5.6012 26.1733,5.7102 C25.9263,5.8202 25.6383,5.8752 25.3093,5.8752 C24.9793,5.8752 24.6923,5.8202 24.4493,5.7102 C24.2053,5.6012 24.0003,5.4602 23.8363,5.2892 C23.6293,5.0762 23.4883,4.8272 23.4123,4.5442 C23.3353,4.2602 23.2963,3.8902 23.2963,3.4332 C23.2963,2.9812 23.3353,2.6142 23.4123,2.3312 C23.4883,2.0472 23.6293,1.7992 23.8363,1.5852 C24.0003,1.4082 24.2053,1.2672 24.4493,1.1602 C24.6923,1.0532 24.9793,1.0002 25.3093,1.0002 C25.6383,1.0002 25.9263,1.0542 26.1733,1.1642 C26.4203,1.2742 26.6253,1.4152 26.7903,1.5852 C26.9983,1.7992 27.1403,2.0472 27.2163,2.3312 C27.2923,2.6142 27.3313,2.9812 27.3313,3.4332 C27.3313,3.8902 27.2923,4.2602 27.2163,4.5442 M26.0923,2.7192 C26.0573,2.5362 25.9823,2.3902 25.8673,2.2802 C25.7263,2.1402 25.5403,2.0702 25.3093,2.0702 C25.0833,2.0702 24.8993,2.1402 24.7603,2.2802 C24.6513,2.3902 24.5773,2.5362 24.5403,2.7192 C24.5043,2.9022 24.4863,3.1402 24.4863,3.4332 C24.4863,3.7252 24.5043,3.9632 24.5403,4.1462 C24.5773,4.3292 24.6513,4.4792 24.7603,4.5952 C24.8993,4.7342 25.0833,4.8052 25.3093,4.8052 C25.5403,4.8052 25.7263,4.7342 25.8673,4.5952 C25.9823,4.4792 26.0573,4.3292 26.0923,4.1462 C26.1243,3.9632 26.1413,3.7252 26.1413,3.4332 C26.1413,3.1402 26.1243,2.9022 26.0923,2.7192" id="Fill-31" fill="#1D1D1B"></path>
            <path d="M8.8143,1.0008 L1.4303,1.0008 C0.6403,1.0008 0.0003,1.6408 0.0003,2.4308 L0.0003,2.7048 L0.1123,2.6688 L0.1113,2.6718 C0.7543,2.4148 1.4443,2.2518 2.1673,2.2048 L2.1673,2.2028 C2.1823,2.2018 2.1973,2.2018 2.2133,2.2018 C2.3433,2.1938 2.4743,2.1888 2.6063,2.1888 C2.7183,2.1888 2.8283,2.1928 2.9393,2.1988 L2.9393,2.2058 C5.9833,2.3668 8.4913,4.5488 9.1343,7.4398 C9.1513,7.5138 7.7673,7.5308 7.7383,7.4278 C7.0973,5.1838 5.0303,3.5408 2.5803,3.5408 C2.4613,3.5408 2.3443,3.5468 2.2263,3.5538 C1.4223,3.6098 0.6673,3.8428 0.0003,4.2148 L0.0003,5.6608 L0.0033,5.6588 C0.6083,5.1728 1.3533,4.8548 2.1673,4.7688 L2.1673,4.7658 C2.1823,4.7638 2.1983,4.7648 2.2143,4.7628 C2.3133,4.7538 2.4143,4.7498 2.5153,4.7478 C2.5373,4.7468 2.5583,4.7438 2.5803,4.7438 C2.5823,4.7438 2.5853,4.7448 2.5873,4.7448 C2.5933,4.7448 2.6003,4.7438 2.6063,4.7438 C2.6983,4.7438 2.7893,4.7498 2.8793,4.7558 C2.8863,4.7558 2.8923,4.7558 2.8993,4.7568 C2.9123,4.7578 2.9253,4.7568 2.9393,4.7578 L2.9393,4.7608 C4.4913,4.8938 5.8003,5.8778 6.3953,7.2448 C6.4223,7.3048 6.4473,7.3658 6.4713,7.4288 C6.5113,7.5348 5.0323,7.5508 4.9663,7.4438 C4.4763,6.6438 3.5953,6.1098 2.5883,6.1068 C1.4093,6.1148 0.4033,6.8528 0.0003,7.8908 L0.0003,9.8148 C0.0003,10.6038 0.6403,11.2448 1.4303,11.2448 L8.8143,11.2448 C9.6043,11.2448 10.2443,10.6038 10.2443,9.8148 L10.2443,2.4308 C10.2443,1.6408 9.6043,1.0008 8.8143,1.0008 Z M2.5803,10.0948 C1.9233,10.0948 1.3893,9.5618 1.3893,8.9028 C1.3893,8.2448 1.9233,7.7108 2.5803,7.7108 C3.2383,7.7108 3.7723,8.2448 3.7723,8.9028 C3.7723,9.5618 3.2383,10.0948 2.5803,10.0948 Z M3.8703,9.9378 L4.2413,9.9378 L4.2413,9.5668 L3.8703,9.5668 L3.8703,9.9378 Z M4.7493,9.3918 C4.7633,9.4528 4.7863,9.5018 4.8183,9.5428 C4.8873,9.6338 4.9833,9.6788 5.1043,9.6788 C5.1643,9.6788 5.2173,9.6688 5.2603,9.6468 C5.3043,9.6258 5.3503,9.5878 5.3983,9.5338 L5.6113,9.7368 C5.5383,9.8138 5.4623,9.8698 5.3833,9.9038 C5.3053,9.9388 5.2113,9.9558 5.1043,9.9558 C5.0133,9.9558 4.9273,9.9408 4.8463,9.9118 C4.7653,9.8828 4.6913,9.8358 4.6273,9.7728 C4.5623,9.7098 4.5123,9.6278 4.4733,9.5258 C4.4363,9.4238 4.4183,9.3038 4.4183,9.1658 C4.4183,9.0268 4.4363,8.9058 4.4733,8.8048 C4.5123,8.7028 4.5623,8.6208 4.6273,8.5588 C4.6913,8.4948 4.7653,8.4498 4.8463,8.4208 C4.9273,8.3938 5.0133,8.3788 5.1043,8.3788 C5.2113,8.3788 5.3053,8.3958 5.3833,8.4288 C5.4623,8.4628 5.5383,8.5188 5.6113,8.5938 L5.3983,8.8008 C5.3503,8.7468 5.3043,8.7088 5.2603,8.6878 C5.2173,8.6658 5.1643,8.6558 5.1043,8.6558 C4.9833,8.6558 4.8873,8.7008 4.8183,8.7928 C4.7863,8.8328 4.7633,8.8818 4.7493,8.9408 C4.7353,8.9998 4.7283,9.0748 4.7283,9.1658 C4.7283,9.2568 4.7353,9.3318 4.7493,9.3918 Z M6.8623,9.5198 C6.8363,9.6158 6.7883,9.7008 6.7203,9.7728 C6.6643,9.8278 6.5993,9.8728 6.5223,9.9058 C6.4463,9.9388 6.3573,9.9558 6.2583,9.9558 C6.1593,9.9558 6.0713,9.9398 5.9953,9.9068 C5.9193,9.8748 5.8533,9.8298 5.7993,9.7728 C5.7303,9.7008 5.6823,9.6158 5.6573,9.5198 C5.6303,9.4238 5.6173,9.3058 5.6173,9.1658 C5.6173,9.0268 5.6303,8.9088 5.6573,8.8118 C5.6823,8.7158 5.7303,8.6328 5.7993,8.5618 C5.8533,8.5048 5.9193,8.4598 5.9953,8.4278 C6.0713,8.3958 6.1593,8.3788 6.2583,8.3788 C6.3573,8.3788 6.4463,8.3958 6.5223,8.4278 C6.5993,8.4598 6.6643,8.5048 6.7203,8.5618 C6.7883,8.6328 6.8363,8.7158 6.8623,8.8118 C6.8893,8.9088 6.9023,9.0268 6.9023,9.1658 C6.9023,9.3058 6.8893,9.4238 6.8623,9.5198 Z M9.2803,9.9378 L8.9703,9.9378 L8.9703,8.9988 C8.9703,8.8838 8.9423,8.7978 8.8853,8.7408 C8.8283,8.6838 8.7543,8.6558 8.6613,8.6558 C8.5723,8.6558 8.4963,8.6838 8.4343,8.7408 C8.3733,8.7978 8.3423,8.8788 8.3423,8.9828 L8.3423,9.9378 L8.0323,9.9378 L8.0323,8.9988 C8.0323,8.8838 8.0043,8.7978 7.9473,8.7408 C7.8903,8.6838 7.8153,8.6558 7.7233,8.6558 C7.6303,8.6558 7.5523,8.6838 7.4933,8.7418 C7.4333,8.7998 7.4033,8.8848 7.4033,8.9988 L7.4033,9.9378 L7.0933,9.9378 L7.0933,8.3978 L7.3973,8.3978 L7.3973,8.5518 C7.4483,8.4948 7.5093,8.4528 7.5813,8.4228 C7.6523,8.3938 7.7283,8.3788 7.8063,8.3788 C8.0013,8.3788 8.1473,8.4538 8.2453,8.6048 C8.3683,8.4538 8.5283,8.3788 8.7283,8.3788 C8.8073,8.3788 8.8793,8.3918 8.9463,8.4158 C9.0133,8.4398 9.0693,8.4748 9.1163,8.5188 C9.2253,8.6258 9.2803,8.7708 9.2803,8.9528 L9.2803,9.9378 Z" id="Fill-33" fill="#1D1D1B"></path>
        </g>
    </g>
</svg>