<?xml version="1.0" encoding="UTF-8"?>
<svg width="37px" height="18px" viewBox="0 0 37 18" version="1.1" xmlns="http://www.w3.org/2000/svg" xmlns:xlink="http://www.w3.org/1999/xlink">
    <!-- Generator: Sketch 52.2 (67145) - http://www.bohemiancoding.com/sketch -->
    <title>Group 20</title>
    <desc>Created with Sketch.</desc>
    <defs>
        <polygon id="path-1" points="0 0.5613 5.2589 0.5613 5.2589 8.7633 0 8.7633"></polygon>
        <polygon id="path-3" points="0.6584 0.5619 7.85 0.5619 7.85 8.9829 0.6584 8.9829"></polygon>
        <polygon id="path-5" points="0.1966 0.273 7.5806 0.273 7.5806 5.9857 0.1966 5.9857"></polygon>
    </defs>
    <g id="Page-1" stroke="none" stroke-width="1" fill="none" fill-rule="evenodd">
        <g id="Group-20" transform="translate(0.000000, -1.000000)">
            <path d="M16.4884,8.0496 C16.4884,7.6866 16.2074,7.2886 15.8444,7.2886 L18.5384,7.2886 C18.1754,7.2886 17.8934,7.6866 17.8934,8.0496 L17.8934,14.7286 C17.8934,15.0996 18.1754,15.4906 18.5384,15.4906 L15.8444,15.4906 C16.2074,15.4906 16.4884,15.0996 16.4884,14.7286 L16.4884,8.0496 Z" id="Fill-1" fill="#1D1D1B"></path>
            <g id="Group-5" transform="translate(0.000000, 6.726900)">
                <mask id="mask-2" fill="white">
                    <use xlink:href="#path-1"></use>
                </mask>
                <g id="Clip-4"></g>
                <path d="M2.0499,4.7583 L3.9289,4.7583 C4.2919,4.7583 4.6349,5.0393 4.6349,5.4033 L4.6279,3.9283 L2.0499,3.9283 L2.0499,1.3913 L4.5519,1.3913 C4.9229,1.3913 5.2589,1.6723 5.2589,2.0423 L5.2589,0.5613 L-0.0001,0.5613 C0.3699,0.5613 0.6449,0.9593 0.6449,1.3223 L0.6449,8.0023 C0.6449,8.3723 0.3699,8.7633 -0.0001,8.7633 L2.7009,8.7633 C2.3309,8.7633 2.0499,8.3723 2.0499,8.0023 L2.0499,4.7583 Z" id="Fill-3" fill="#1D1D1B" mask="url(#mask-2)"></path>
            </g>
            <path d="M7.4456,13.2888 C7.4456,14.1388 8.1376,14.8798 8.9886,14.8798 C9.8386,14.8798 10.5376,14.1258 10.5376,13.2748 L10.5376,8.0498 C10.5376,7.6858 10.2566,7.2888 9.8866,7.2888 L12.5876,7.2888 C12.2176,7.2888 11.9366,7.6858 11.9366,8.0498 L11.9366,13.1308 C11.9366,14.7558 10.6266,15.7098 8.9946,15.7098 C7.3636,15.7098 6.0406,14.7558 6.0406,13.1308 L6.0406,8.0498 C6.0406,7.6858 5.7586,7.2888 5.3956,7.2888 L8.0896,7.2888 C7.7196,7.2888 7.4456,7.6858 7.4456,8.0498 L7.4456,13.2888 Z" id="Fill-6" fill="#1D1D1B"></path>
            <path d="M14.9116,8.0496 C14.9116,7.6866 15.1926,7.2886 15.5626,7.2886 L12.8616,7.2886 C13.2316,7.2886 13.5126,7.6866 13.5126,8.0496 L13.5126,16.3956 C13.5126,16.3956 13.4856,17.8836 12.3206,18.7266 C12.3206,18.7266 14.9186,18.3566 14.9186,15.9016 L14.9116,8.0496 Z" id="Fill-8" fill="#1D1D1B"></path>
            <g id="Group-12" transform="translate(29.000000, 6.726900)">
                <mask id="mask-4" fill="white">
                    <use xlink:href="#path-3"></use>
                </mask>
                <g id="Clip-11"></g>
                <path d="M2.7084,6.5619 C2.7084,7.4119 3.4004,8.1529 4.2574,8.1529 C5.1084,8.1529 5.8004,7.3989 5.8004,6.5479 L5.8004,1.3229 C5.8004,0.9589 5.5194,0.5619 5.1564,0.5619 L7.8504,0.5619 C7.4874,0.5619 7.2054,0.9589 7.2054,1.3229 L7.2054,6.4039 C7.2054,8.0289 5.8894,8.9829 4.2644,8.9829 C2.6334,8.9829 1.3034,8.0289 1.3034,6.4039 L1.3094,1.3229 C1.3094,0.9589 1.0284,0.5619 0.6584,0.5619 L3.3594,0.5619 C2.9894,0.5619 2.7084,0.9589 2.7084,1.3229 L2.7084,6.5619 Z" id="Fill-10" fill="#1D1D1B" mask="url(#mask-4)"></path>
            </g>
            <path d="M29.0209,8.6324 C28.5819,7.8784 27.5469,7.9744 27.5469,7.9744 C25.9019,7.9744 25.9769,9.2634 25.9769,9.2634 C25.9769,9.2634 25.8669,9.9084 26.6899,10.3534 L28.3419,11.2524 C29.9329,12.1294 29.7479,13.3714 29.7479,13.3714 C29.7479,13.3714 29.8159,15.7024 26.4909,15.7024 C26.4909,15.7024 25.5249,15.7304 24.9759,15.5244 L24.4959,13.9884 C24.9899,14.7634 26.5049,14.8794 26.5049,14.8794 C28.3699,14.7904 28.3829,13.4874 28.3829,13.4874 C28.3829,13.4874 28.4729,12.9254 27.7389,12.5134 L26.0939,11.6154 C24.3799,10.6764 24.5779,9.4144 24.5779,9.4144 C24.5779,9.4144 24.5369,7.1234 27.4849,7.1234 C27.4849,7.1234 28.8089,7.1584 29.0209,7.3704 L29.0209,8.6324 Z" id="Fill-13" fill="#1D1D1B"></path>
            <path d="M19.0182,7.2884 L18.5722,8.7974 C18.9292,8.1254 19.4982,8.1184 19.4982,8.1184 L20.9242,8.1184 L20.9242,14.7284 C20.9242,15.0994 20.6432,15.4904 20.2792,15.4904 L22.9742,15.4904 C22.6102,15.4904 22.3292,15.0994 22.3292,14.7284 L22.3292,8.1184 L23.5222,8.1184 C23.8932,8.1184 24.1872,8.4134 24.1872,8.7834 L24.6262,7.2884 L19.0182,7.2884 Z" id="Fill-15" fill="#1D1D1B"></path>
            <g id="Group-19" transform="translate(12.000000, 0.726900)">
                <mask id="mask-6" fill="white">
                    <use xlink:href="#path-5"></use>
                </mask>
                <g id="Clip-18"></g>
                <path d="M4.1456,3.7087 C4.4406,4.0037 4.8446,4.1817 5.2906,4.1817 C6.1886,4.1817 6.9156,3.4547 6.9156,2.5637 C6.9156,1.6647 6.1886,0.9377 5.2906,0.9377 C5.2906,0.9377 4.0426,0.8217 3.4806,2.4197 L3.4806,1.2197 C3.8986,0.6707 4.5496,0.2727 5.2906,0.2727 C6.5586,0.2727 7.5806,1.2947 7.5806,2.5637 C7.5806,3.8257 6.5586,4.8467 5.2906,4.8467 C4.6596,4.8467 4.0906,4.5937 3.6726,4.1817 L2.8846,3.2977 C2.6716,3.0777 2.3766,2.9477 2.0476,2.9477 C1.3896,2.9477 0.8616,3.4757 0.8616,4.1337 C0.8616,4.7927 1.3896,5.3207 2.0476,5.3207 C2.0476,5.3207 2.9256,5.4367 3.4806,4.3537 L3.4806,5.3137 C3.1376,5.7247 2.6236,5.9857 2.0476,5.9857 C1.0266,5.9857 0.1966,5.1557 0.1966,4.1337 C0.1966,3.1117 1.0266,2.2827 2.0476,2.2827 C2.5616,2.2827 3.0216,2.4877 3.3576,2.8237 L4.1456,3.7087 Z" id="Fill-17" fill="#1D1D1B" mask="url(#mask-6)"></path>
            </g>
        </g>
    </g>
</svg>