<?xml version="1.0" encoding="UTF-8"?>
<svg width="37px" height="11px" viewBox="0 0 37 11" version="1.1" xmlns="http://www.w3.org/2000/svg" xmlns:xlink="http://www.w3.org/1999/xlink">
    <!-- Generator: Sketch 52.2 (67145) - http://www.bohemiancoding.com/sketch -->
    <title>Group 3</title>
    <desc>Created with Sketch.</desc>
    <defs>
        <polygon id="path-1" points="0 0.0004 36.85 0.0004 36.85 10.197334 0 10.197334"></polygon>
    </defs>
    <g id="Page-1" stroke="none" stroke-width="1" fill="none" fill-rule="evenodd">
        <g id="Group-3">
            <mask id="mask-2" fill="white">
                <use xlink:href="#path-1"></use>
            </mask>
            <g id="Clip-2"></g>
            <path d="M13.2009,9.9392 L15.3239,0.3622 L17.9639,0.3622 L16.8249,5.4352 L18.9469,2.8982 L21.8459,2.8982 L19.2579,6.0572 L20.3449,9.9392 L17.7049,9.9392 L16.6179,6.2642 L15.7899,9.9392 L13.2009,9.9392 Z M3.7269,5.1252 L5.5909,9.9392 L8.1279,9.9392 L10.2499,0.3622 L7.6619,0.3622 L6.5749,5.2282 L4.7629,0.3622 L2.1229,0.3622 L-0.0001,9.9392 L2.6399,9.9392 C2.9509,8.3862 3.3649,6.7812 3.7269,5.1252 Z M11.9589,9.9392 L13.5119,2.8982 L10.9749,2.8982 L9.3699,9.9392 L11.9589,9.9392 Z M11.0789,1.3462 C11.0789,1.5532 11.1299,2.3292 12.5279,2.3292 C13.7189,2.3292 14.1849,1.6042 14.1849,1.0352 C14.1849,0.6732 13.8739,0.0002 12.6829,0.0002 C11.6479,0.0002 11.0789,0.7242 11.0789,1.3462 Z M35.8759,2.7952 C34.7369,2.4852 33.3909,3.0022 32.7179,3.9342 C32.7699,3.6752 32.8729,3.3132 32.9249,2.9512 L30.3359,2.9512 L28.7829,9.9392 L31.3719,9.9392 L32.2519,5.9532 C32.4069,5.2282 33.0279,4.9182 33.5459,5.0732 C33.7529,5.1252 34.0639,5.2802 33.9599,5.9012 L33.0799,9.9392 L35.6679,9.9392 L36.8069,4.5552 C37.0659,3.3642 36.0829,2.8472 35.8759,2.7952 Z M27.1269,9.3182 C28.2659,8.3862 28.7829,6.8332 28.7829,5.3322 C28.7829,3.9342 27.5929,2.5882 25.4699,2.5882 C21.5359,2.5882 20.9659,5.6942 20.8109,6.2642 C20.5519,7.6622 20.8629,9.5252 22.7259,9.9912 C23.9689,10.3532 25.8839,10.3022 27.1269,9.3182 Z M24.2279,5.2282 C24.3829,4.7102 24.9009,4.6072 25.1079,4.6072 C25.6769,4.5552 25.8329,4.9182 25.7809,5.2282 C25.6769,6.1082 25.3669,7.2472 25.2629,7.6092 C25.1079,7.9722 24.7449,8.2312 24.3309,8.2312 C23.8649,8.2312 23.6069,7.9202 23.6579,7.6092 C23.7099,6.9892 24.0729,5.4872 24.2279,5.2282 Z" id="Fill-1" fill="#1D1D1B" mask="url(#mask-2)"></path>
        </g>
    </g>
</svg>