<?xml version="1.0" encoding="UTF-8"?>
<svg width="23px" height="25px" viewBox="0 0 23 25" version="1.1" xmlns="http://www.w3.org/2000/svg" xmlns:xlink="http://www.w3.org/1999/xlink">
    <!-- Generator: Sketch 52.2 (67145) - http://www.bohemiancoding.com/sketch -->
    <title>Group 54</title>
    <desc>Created with Sketch.</desc>
    <defs>
        <polygon id="path-1" points="0.4219 0.8125 4.4839 0.8125 4.4839 5 0.4219 5"></polygon>
        <polygon id="path-3" points="0.4381 0.7314 4.677 0.7314 4.677 4.9184 0.4381 4.9184"></polygon>
        <polygon id="path-5" points="0.8593 0.002 4.1603 0.002 4.1603 1.9367 0.8593 1.9367"></polygon>
    </defs>
    <g id="Page-1" stroke="none" stroke-width="1" fill="none" fill-rule="evenodd">
        <g id="Group-54" transform="translate(0.000000, -1.000000)">
            <path d="M0.8102,22.5264 C0.8102,22.1194 0.7682,22.0614 0.3402,22.0614 L0.3402,21.8104 L2.0622,21.8104 C2.6662,21.8104 3.0232,21.8934 3.2872,22.0774 C3.5462,22.2594 3.7082,22.5614 3.7082,22.9364 C3.7082,23.3224 3.5822,23.6304 3.3042,23.8344 C3.0312,24.0334 2.6682,24.1374 1.9722,24.1374 L1.6582,24.1374 L1.6582,25.2014 C1.6582,25.6134 1.6892,25.6664 2.1792,25.6664 L2.1792,25.9174 L0.3402,25.9174 L0.3402,25.6664 C0.7682,25.6664 0.8102,25.6084 0.8102,25.2014 L0.8102,22.5264 Z M1.7942,22.1134 C1.6782,22.1134 1.6582,22.1644 1.6582,22.4224 L1.6582,23.8354 L1.9672,23.8354 C2.2182,23.8354 2.4572,23.7854 2.6212,23.6254 C2.7562,23.4894 2.8432,23.2974 2.8432,22.9604 C2.8432,22.6664 2.7602,22.4394 2.6152,22.2994 C2.4772,22.1704 2.2752,22.1134 1.9932,22.1134 L1.7942,22.1134 Z" id="Fill-1" fill="#1D1D1B"></path>
            <path d="M7.2748,24.9216 L7.2868,24.9216 L7.2868,22.5246 C7.2868,22.1156 7.2298,22.0616 6.8128,22.0616 L6.8128,21.8106 L8.0968,21.8106 L8.0968,22.0616 C7.7128,22.0616 7.6528,22.1186 7.6528,22.5246 L7.6528,25.9756 L7.1048,25.9756 L4.8708,22.5346 L4.8588,22.5346 L4.8588,25.2036 C4.8588,25.6106 4.9048,25.6656 5.3198,25.6656 L5.3198,25.9166 L4.0328,25.9166 L4.0328,25.6656 C4.4438,25.6656 4.4938,25.6106 4.4938,25.2036 L4.4938,22.5186 C4.4938,22.1056 4.4468,22.0616 4.0278,22.0616 L4.0278,21.8106 L5.2928,21.8106 L7.2748,24.9216 Z" id="Fill-3" fill="#1D1D1B"></path>
            <g id="Group-7" transform="translate(8.000000, 20.998400)">
                <mask id="mask-2" fill="white">
                    <use xlink:href="#path-1"></use>
                </mask>
                <g id="Clip-6"></g>
                <path d="M3.6879,1.5265 C3.6879,1.1075 3.6349,1.0635 3.2599,1.0635 L3.2599,0.8125 L4.4839,0.8125 L4.4839,1.0635 C4.1029,1.0635 4.0599,1.1205 4.0599,1.5265 L4.0599,3.5385 C4.0599,4.0355 3.9419,4.3805 3.6889,4.6305 C3.4449,4.8685 3.0799,5.0005 2.5569,5.0005 C2.0069,5.0005 1.5749,4.9105 1.2869,4.6885 C0.9729,4.4455 0.8679,4.0695 0.8679,3.5085 L0.8679,1.5265 C0.8679,1.1195 0.8309,1.0635 0.4219,1.0635 L0.4219,0.8125 L2.1639,0.8125 L2.1639,1.0635 C1.7659,1.0635 1.7339,1.1055 1.7339,1.5265 L1.7339,3.4675 C1.7339,3.8785 1.7919,4.1815 1.9909,4.3855 C2.1409,4.5545 2.3729,4.6435 2.7139,4.6435 C3.0159,4.6435 3.2919,4.5525 3.4569,4.3455 C3.6349,4.1415 3.6879,3.8585 3.6879,3.4915 L3.6879,1.5265 Z" id="Fill-5" fill="#1D1D1B" mask="url(#mask-2)"></path>
            </g>
            <path d="M18.2065,21.8106 L18.2065,22.0616 C17.7635,22.0616 17.7315,22.1196 17.7315,22.5316 L17.7315,25.2036 C17.7315,25.6106 17.7715,25.6656 18.2095,25.6656 L18.2095,25.9166 L16.4115,25.9166 L16.4115,25.6656 C16.8505,25.6656 16.8835,25.6096 16.8835,25.2036 L16.8835,22.6276 L16.8675,22.6276 L15.3955,25.9486 L15.1195,25.9486 L13.6235,22.6206 L13.6095,22.6206 L13.6095,25.2036 C13.6095,25.6096 13.6505,25.6656 14.0515,25.6656 L14.0515,25.9166 L12.7775,25.9166 L12.7775,25.6656 C13.2055,25.6656 13.2435,25.6096 13.2435,25.2036 L13.2435,22.5116 C13.2435,22.1156 13.2055,22.0616 12.7735,22.0616 L12.7735,21.8106 L14.0945,21.8106 L15.4875,24.8996 L15.5045,24.8996 L16.8645,21.8106 L18.2065,21.8106 Z" id="Fill-8" fill="#1D1D1B"></path>
            <g id="Group-12" transform="translate(18.000000, 20.998400)">
                <mask id="mask-4" fill="white">
                    <use xlink:href="#path-3"></use>
                </mask>
                <g id="Clip-11"></g>
                <path d="M1.4631,3.6764 L1.2681,4.2504 C1.1471,4.5984 1.1731,4.6674 1.5231,4.6674 L1.5231,4.9184 L0.4381,4.9184 L0.4381,4.6674 C0.6321,4.6674 0.7321,4.6104 0.8271,4.3564 L2.2081,0.7314 L2.7191,0.7314 L4.2411,4.2794 C4.3751,4.6014 4.4601,4.6674 4.6771,4.6674 L4.6771,4.9184 L3.0781,4.9184 L3.0781,4.6674 C3.4381,4.6674 3.4591,4.5764 3.3451,4.3034 L3.1031,3.6764 L1.4631,3.6764 Z M2.2571,1.5894 L2.2361,1.5894 L1.5841,3.3734 L2.9811,3.3734 L2.2571,1.5894 Z" id="Fill-10" fill="#1D1D1B" mask="url(#mask-4)"></path>
            </g>
            <path d="M10.7169,5.0223 C15.0129,5.0223 16.0509,9.0313 16.0509,9.0313 C16.0509,9.0313 14.1079,8.9393 13.0699,8.8413 C12.0329,8.7443 11.2359,8.3553 11.2359,8.3553 C11.2359,8.3553 11.7659,7.9673 11.7659,7.4283 C11.7659,6.8893 11.3819,6.4993 10.7789,6.4993 C10.1749,6.4993 9.7879,7.0363 9.7879,7.4763 C9.7879,7.9143 10.4149,8.4273 10.4149,8.4273 C10.4149,8.4273 9.1629,8.8443 7.8819,8.8913 C6.6019,8.9393 5.3729,8.9393 5.3729,8.9393 C5.3729,8.9393 6.6419,5.0223 10.7169,5.0223" id="Fill-13" fill="#1D1D1B"></path>
            <path d="M5.2511,9.3799 C5.2511,9.3799 7.5691,9.4309 8.3161,9.5759 C9.0641,9.7209 10.3441,10.2339 10.3441,12.1629 C10.3441,14.9459 9.2101,16.1909 9.2101,16.1909 C9.2101,16.1909 5.0601,15.0459 5.0601,10.6989 C5.0601,9.8669 5.2511,9.3799 5.2511,9.3799" id="Fill-15" fill="#1D1D1B"></path>
            <path d="M16.2062,9.4048 C16.2062,9.4048 13.9642,9.4818 13.2402,9.6738 C12.5162,9.8668 11.0922,9.8408 11.0922,12.2118 C11.0922,14.5808 12.1522,16.2408 12.1522,16.2408 C12.1522,16.2408 16.4492,15.0658 16.4492,10.5758 C16.4492,9.7698 16.2062,9.4048 16.2062,9.4048" id="Fill-17" fill="#1D1D1B"></path>
            <path d="M13.7379,3.3494 C13.7379,3.3494 13.4189,2.8204 12.9409,2.6124 C12.4619,2.4044 11.9389,2.4734 11.9389,2.4734 C11.9389,2.4734 12.2539,2.9344 12.7559,3.1424 C13.2589,3.3494 13.7379,3.3494 13.7379,3.3494" id="Fill-19" fill="#1D1D1B"></path>
            <path d="M12.2121,1.7829 C12.2121,1.7829 11.7761,1.3909 11.2761,1.3909 C10.7761,1.3909 9.6601,2.0809 9.6601,2.0809 C9.6601,2.0809 10.2071,2.2909 10.3891,2.4739 C10.5701,2.6569 11.1631,2.9569 11.5041,2.9789 C11.8471,3.0029 11.9591,2.9349 11.9591,2.9349 C11.9591,2.9349 11.6881,2.7979 11.4591,2.6129 C11.2311,2.4259 10.7731,2.1959 10.6151,2.1499 C10.4571,2.1049 10.4341,2.0599 10.4341,2.0599 C10.4341,2.0599 10.7071,2.0809 11.0491,1.9659 C11.3911,1.8519 11.5061,1.7589 11.8011,1.8049 C12.0961,1.8489 12.2121,1.7829 12.2121,1.7829" id="Fill-21" fill="#1D1D1B"></path>
            <g id="Group-25" transform="translate(6.000000, 0.998400)">
                <mask id="mask-6" fill="white">
                    <use xlink:href="#path-5"></use>
                </mask>
                <g id="Clip-24"></g>
                <path d="M4.1603,0.3237 C4.1603,0.3237 3.8213,0.0017 3.1823,0.0017 C2.2033,0.0017 0.8593,1.1747 0.8593,1.1747 C0.8593,1.1747 1.3143,1.2217 1.7013,1.4067 C2.0873,1.5897 2.5893,1.9367 3.1133,1.9367 C3.6363,1.9367 4.0473,1.7737 4.0473,1.7737 C4.0473,1.7737 3.7753,1.7067 3.5233,1.6137 C3.2723,1.5207 2.7723,1.1977 2.4533,1.1517 C2.1353,1.1067 1.9503,0.9447 1.9503,0.9447 C1.9503,0.9447 2.3163,0.8527 2.6343,0.7147 C2.9533,0.5767 3.2733,0.3907 3.5233,0.4147 C3.7743,0.4387 4.1603,0.3237 4.1603,0.3237" id="Fill-23" fill="#1D1D1B" mask="url(#mask-6)"></path>
            </g>
            <path d="M6.9723,1.0907 C6.9723,1.0907 5.8613,1.2587 5.3313,1.8757 C4.5813,2.7487 4.3073,3.8777 4.3073,3.8777 C4.3073,3.8777 4.8783,3.5537 5.2413,3.5777 C5.6053,3.6017 6.4263,3.4177 6.8593,3.2107 C7.2903,3.0027 7.5883,2.6347 7.5883,2.6347 C7.5883,2.6347 7.2223,2.7727 6.8803,2.7947 C6.5383,2.8197 5.9043,2.7927 5.7203,2.9567 C5.5363,3.1167 5.1963,3.0477 5.1963,3.0477 C5.1963,3.0477 5.4433,2.7027 5.6733,2.4257 C5.9013,2.1507 6.1283,1.8547 6.3563,1.6687 C6.5853,1.4817 6.9723,1.0907 6.9723,1.0907" id="Fill-26" fill="#1D1D1B"></path>
            <path d="M3.9658,2.4255 C3.9658,2.4255 2.0068,3.6495 2.0068,5.2375 C2.0068,6.2265 2.0528,6.7115 2.0528,6.7115 C2.0528,6.7115 2.5298,6.2975 2.8028,6.1805 C3.0768,6.0645 3.8078,5.6525 4.1708,5.3075 C4.5338,4.9605 4.9918,4.3625 4.9918,4.3625 C4.9918,4.3625 4.0338,4.6575 3.6238,4.8435 C3.2138,5.0285 2.5518,5.4875 2.5518,5.4875 C2.5518,5.4875 2.8058,5.0745 2.9878,4.7295 C3.1688,4.3835 3.1898,3.8765 3.4188,3.5075 C3.6478,3.1425 3.9658,2.4255 3.9658,2.4255" id="Fill-28" fill="#1D1D1B"></path>
            <path d="M1.5513,4.9371 C1.5513,4.9371 1.4163,6.0891 1.4383,6.4331 C1.4593,6.7801 1.5963,7.1691 1.5273,7.5381 C1.4593,7.9071 1.4383,8.6681 1.4383,8.6681 C1.4383,8.6681 1.7303,7.8821 2.0743,7.4931 C2.8263,6.6421 3.5103,6.5721 3.5103,6.5721 C3.5103,6.5721 2.9873,7.6791 2.6453,8.1141 C2.3033,8.5501 1.6403,9.1501 1.5963,9.3801 C1.5513,9.6121 1.3913,9.8891 1.3913,9.8891 C1.3913,9.8891 1.0723,9.3131 0.9593,8.8071 C0.8463,8.2981 0.5483,7.4951 0.8223,6.7111 C1.0963,5.9261 1.5513,4.9371 1.5513,4.9371" id="Fill-30" fill="#1D1D1B"></path>
            <path d="M0.1836,8.8069 C0.1836,8.8069 0.6876,10.4879 1.0506,11.1549 C1.4146,11.8229 1.6436,11.8909 1.6436,11.8909 C1.6436,11.8909 1.5516,11.2479 1.7566,10.6699 C1.9616,10.0939 2.6446,9.1279 2.6446,9.1279 C2.6446,9.1279 2.8026,10.3449 2.6666,10.7849 C2.5296,11.2229 2.1906,11.9819 2.0986,12.5359 C2.0066,13.0879 1.9166,13.3879 1.9166,13.3879 C1.9166,13.3879 1.1886,12.8089 0.7096,12.1199 C0.2306,11.4299 -0.0214,10.6669 0.0016,10.1629 C0.0256,9.6579 0.1836,8.8069 0.1836,8.8069" id="Fill-32" fill="#1D1D1B"></path>
            <path d="M0.0259,12.3053 C0.0259,12.3053 0.5249,13.1833 0.8229,13.3873 C1.1199,13.5933 2.0749,14.3543 2.2799,14.7003 C2.4849,15.0453 2.7349,15.3223 2.7349,15.3223 C2.7349,15.3223 2.4399,14.4003 2.4399,13.7313 C2.4399,13.0643 2.5979,11.8233 2.5979,11.8233 C2.5979,11.8233 3.2109,13.1573 3.2589,13.9623 C3.3049,14.7693 3.1919,15.2963 3.3049,15.5523 C3.4189,15.8053 3.6239,16.1053 3.6239,16.1053 C3.6239,16.1053 1.9219,15.8483 1.2779,15.2083 C-0.0881,13.8483 0.0259,12.3053 0.0259,12.3053" id="Fill-34" fill="#1D1D1B"></path>
            <path d="M1.1858,16.2433 C1.1858,16.2433 2.1428,17.0483 2.9638,17.1173 C3.7848,17.1863 4.4208,17.2543 4.6948,17.3703 C4.9678,17.4863 5.2418,17.3703 5.2418,17.3703 C5.2418,17.3703 4.6258,16.7263 4.4208,16.1973 C4.2158,15.6683 3.9208,14.6063 3.9208,14.6063 C3.9208,14.6063 4.8768,15.3223 5.2178,15.8513 C5.5598,16.3813 5.6968,16.9353 6.0838,17.2563 C6.4698,17.5783 6.9488,17.9713 6.9488,17.9713 C6.9488,17.9713 6.4268,17.8333 6.0618,17.9473 C5.6968,18.0613 4.8288,18.1763 4.3978,18.1763 C3.9658,18.1763 2.5978,17.9263 2.0068,17.2793 C1.4138,16.6333 1.1858,16.2433 1.1858,16.2433" id="Fill-36" fill="#1D1D1B"></path>
            <path d="M3.4638,18.5911 C3.4638,18.5911 4.1938,18.9611 5.0598,18.9611 C5.9258,18.9611 7.4988,18.0611 8.4528,18.0611 C9.8638,18.0611 10.6628,18.3381 10.6628,18.3381 C10.6628,18.3381 11.3228,18.0611 12.3698,18.0611 C13.4168,18.0611 15.4888,18.9151 16.3098,18.9151 C17.1308,18.9151 17.8598,18.5451 17.8598,18.5451 C17.8598,18.5451 16.6948,19.5591 15.2838,19.5591 C13.8748,19.5591 12.0728,18.4081 11.7548,18.4081 C11.4358,18.4081 11.2988,18.5221 11.2988,18.5221 C11.2988,18.5221 12.6908,19.1891 13.1218,19.6731 C13.5528,20.1571 13.6898,20.2261 13.6898,20.2261 L13.4638,20.5031 C13.4638,20.5031 12.1178,19.0551 11.6178,18.8951 C11.1178,18.7311 10.6838,18.5681 10.6838,18.5681 C10.6838,18.5681 9.6368,18.7071 8.9528,19.3511 C8.2688,19.9951 7.9058,20.4791 7.9058,20.4791 L7.5648,20.1811 C7.5648,20.1811 8.4088,19.3941 8.8638,19.1201 C9.3178,18.8461 10.0468,18.5001 10.0468,18.5001 C10.0468,18.5001 9.5358,18.5221 9.1588,18.5221 C8.5218,18.5221 7.7008,19.5131 6.6308,19.5131 C4.1478,19.5131 3.4638,18.5911 3.4638,18.5911" id="Fill-38" fill="#1D1D1B"></path>
            <path d="M17.2224,14.6065 C17.2224,14.6065 17.0674,15.5985 16.9024,16.1735 C16.7184,16.8195 16.1734,17.4865 16.1734,17.4865 C16.1734,17.4865 17.0154,17.2345 17.4014,17.1865 C17.7894,17.1395 18.5904,17.0725 18.9534,16.8655 C19.3174,16.6565 20.0924,15.9905 20.0924,15.9905 C20.0924,15.9905 19.2044,18.2235 17.0624,18.2235 C15.9234,18.2235 15.7844,18.0855 15.4214,18.0855 C15.0584,18.0855 14.5104,18.1995 14.5104,18.1995 C14.5104,18.1995 15.1054,17.7865 15.3314,17.4865 C15.5584,17.1865 15.7654,16.2215 16.0834,15.8515 C16.4024,15.4825 17.2224,14.6065 17.2224,14.6065" id="Fill-40" fill="#1D1D1B"></path>
            <path d="M18.862,11.8914 C18.862,11.8914 19.066,12.8114 19.066,13.5034 C19.066,14.1954 18.793,15.1604 18.793,15.1604 C18.793,15.1604 19.088,14.8174 19.43,14.5854 C19.772,14.3544 20.616,13.8254 20.935,13.4794 C21.253,13.1334 21.663,12.5844 21.663,12.5844 C21.663,12.5844 21.196,14.4644 20.319,15.0924 C19.317,15.8054 17.883,16.0594 17.883,16.0594 C17.883,16.0594 18.338,15.3674 18.27,14.9074 C18.201,14.4474 18.249,13.5034 18.406,13.0434 C18.564,12.5844 18.862,11.8914 18.862,11.8914" id="Fill-42" fill="#1D1D1B"></path>
            <path d="M19.272,9.3105 C19.272,9.3105 20.025,10.1865 20.138,10.8085 C20.251,11.4305 20.251,11.9135 20.251,11.9135 C20.251,11.9135 20.616,11.0145 20.867,10.6465 C21.116,10.2795 21.437,10.0025 21.55,9.7265 C21.663,9.4505 21.731,9.2425 21.731,9.2425 C21.731,9.2425 21.844,9.8405 21.777,10.2555 C21.708,10.6705 21.163,11.8935 20.616,12.4445 C20.069,12.9955 19.84,13.2505 19.84,13.2505 C19.84,13.2505 19.909,12.4635 19.772,12.0505 C19.635,11.6385 19.292,10.7845 19.248,10.3245 C19.204,9.8645 19.272,9.3105 19.272,9.3105" id="Fill-44" fill="#1D1D1B"></path>
            <path d="M19.0905,6.9867 C19.0905,6.9867 19.6615,7.5597 19.8195,7.6767 C19.9765,7.7927 20.4565,8.4127 20.5245,8.6207 C20.5925,8.8287 20.7055,8.8967 20.7055,8.8967 C20.7055,8.8967 20.7055,8.3457 20.7745,8.0007 C20.8425,7.6547 21.0235,7.2847 21.0475,6.8947 C21.0715,6.5027 21.1395,6.1117 21.1395,6.1117 C21.1395,6.1117 21.3915,7.0557 21.4125,7.6547 C21.4345,8.2537 21.2055,9.2217 20.9795,9.6807 C20.7525,10.1407 20.6615,10.1407 20.6615,10.1407 C20.6615,10.1407 20.2055,9.2637 20.0005,9.1037 C19.7955,8.9457 19.5435,8.5087 19.3615,8.0697 C19.1795,7.6307 19.0905,6.9867 19.0905,6.9867" id="Fill-46" fill="#1D1D1B"></path>
            <path d="M18.2251,4.7983 C18.2251,4.7983 19.1771,5.1023 19.4301,5.3763 C19.6821,5.6503 20.0921,5.9503 20.0921,5.9503 C20.0921,5.9503 19.9111,5.4423 19.8881,5.1203 C19.8631,4.7983 19.8881,4.1773 19.8191,3.9933 C19.7501,3.8083 19.4771,3.2563 19.4771,3.2563 C19.4771,3.2563 20.6371,4.2913 20.6371,5.1903 C20.6371,6.0883 20.3401,6.6173 20.3641,6.8243 C20.3871,7.0333 20.3191,7.1463 20.3191,7.1463 C20.3191,7.1463 19.5221,6.4103 19.2481,6.2023 C18.9751,5.9943 18.8171,5.7903 18.5881,5.4903 C18.3601,5.1903 18.2251,4.7983 18.2251,4.7983" id="Fill-48" fill="#1D1D1B"></path>
            <path d="M17.5172,1.6688 C17.5172,1.6688 18.4722,2.1048 18.6332,2.5888 C18.7932,3.0728 19.0222,4.4078 19.0222,4.4078 C19.0222,4.4078 18.7462,4.1768 18.4512,4.0618 C18.1562,3.9468 17.5622,3.7878 17.3122,3.5558 C17.0622,3.3248 16.5842,2.6808 16.5842,2.6808 C16.5842,2.6808 17.0412,3.0508 17.2682,3.0728 C17.4932,3.0948 17.8142,3.2318 18.0642,3.3708 C18.3142,3.5078 18.4752,3.6018 18.4752,3.6018 C18.4752,3.6018 18.3142,3.2078 18.1092,2.8408 C17.9052,2.4738 17.8352,2.1288 17.6992,2.0348 C17.5622,1.9428 17.5172,1.6688 17.5172,1.6688" id="Fill-50" fill="#1D1D1B"></path>
            <path d="M15.5813,1.4818 C15.5813,1.4818 16.2863,1.5088 16.6513,1.8068 C17.0173,2.1048 17.3803,2.7728 17.3803,2.7728 C17.3803,2.7728 16.6733,2.5398 16.3783,2.2878 C16.0833,2.0348 15.5813,1.4818 15.5813,1.4818" id="Fill-52" fill="#1D1D1B"></path>
        </g>
    </g>
</svg>