<?xml version="1.0" encoding="UTF-8"?>
<svg width="24px" height="30px" viewBox="0 0 24 30" version="1.1" xmlns="http://www.w3.org/2000/svg" xmlns:xlink="http://www.w3.org/1999/xlink">
    <!-- Generator: Sketch 52.2 (67145) - http://www.bohemiancoding.com/sketch -->
    <title>Group 24</title>
    <desc>Created with Sketch.</desc>
    <defs>
        <polygon id="path-1" points="0.6432 0.3201 5.5772 0.3201 5.5772 4 0.6432 4"></polygon>
        <polygon id="path-3" points="0.8759 0.3547 4.877 0.3547 4.877 3.9275372 0.8759 3.9275372"></polygon>
        <polygon id="path-5" points="0 0.3431 5.1869 0.3431 5.1869 4.9571 0 4.9571"></polygon>
    </defs>
    <g id="Page-1" stroke="none" stroke-width="1" fill="none" fill-rule="evenodd">
        <g id="Group-24">
            <path d="M20.7448,11.5784 C20.7308,11.5344 20.7138,11.4914 20.6978,11.4474 C19.2138,13.1424 15.5678,14.2384 12.2888,13.9964 C10.3558,13.8534 6.7788,12.8534 4.9738,11.7484 C6.8798,13.5744 9.1138,14.9624 11.6398,15.7134 C14.6428,16.6054 17.8448,16.5444 19.6508,15.6034 C20.9728,14.7104 21.2728,13.1174 20.7448,11.5784" id="Fill-1" fill="#9C9C9C"></path>
            <path d="M16.613,0.9166 C22.527,4.4086 19.01,15.3926 14.304,18.9206 C9.928,22.2006 5.273,20.6896 4.262,17.6646 C5.142,18.9736 6.893,19.4516 8.448,18.9286 C12.768,17.1976 14.994,9.3706 15.282,6.6516 C15.476,4.3116 15.168,2.7396 14.356,1.7466 C13.425,0.7606 11.998,0.2866 9.913,0.9416 C11.349,-0.2384 14.421,-0.3784 16.613,0.9166" id="Fill-3" fill="#1D1D1B"></path>
            <path d="M19.9214,15.451 C19.9454,15.435 19.9684,15.419 19.9914,15.404 C19.9964,15.401 20.0014,15.398 20.0054,15.395 C20.1264,15.315 20.2474,15.224 20.3564,15.125 C20.4104,15.078 20.4624,15.026 20.5154,14.974 C22.8134,12.64 23.3034,6.149 17.6354,3.07 C15.6174,1.977 10.9284,0.444 6.2514,2.809 C4.7044,3.591 3.1074,5.216 2.2494,7.421 C2.8824,6.373 3.9794,5.665 6.1434,5.358 C8.2994,5.087 11.2734,5.421 14.1804,6.45 C16.0584,7.14 17.5754,7.994 18.7624,8.962 C19.7404,9.803 20.3714,10.6 20.6974,11.447 C20.7134,11.491 20.7304,11.534 20.7444,11.578 C21.2724,13.117 20.9714,14.71 19.6494,15.603 C19.6474,15.605 19.6524,15.603 19.6494,15.603 C19.7114,15.573 19.7724,15.538 19.8374,15.5 C19.8464,15.495 19.8554,15.489 19.8644,15.483 C19.8844,15.472 19.9034,15.46 19.9214,15.451" id="Fill-5" fill="#9C9C9C"></path>
            <path d="M2.981,11.157 C3.088,11.33 3.334,11.621 3.496,11.806 C4.63,9.135 10.853,7.398 12.688,7.421 C8.566,6.093 4.525,6.726 2.9,8.135 C2.309,8.794 2.125,9.779 2.981,11.157" id="Fill-7" fill="#9C9C9C"></path>
            <path d="M15.1168,17.216 C11.8018,17.03 6.9768,15.751 3.5578,11.878 C3.5388,11.857 3.5178,11.831 3.4968,11.806 C3.3338,11.621 3.0878,11.33 2.9808,11.157 C2.1248,9.779 2.3088,8.795 2.8998,8.135 L2.8998,8.136 C2.7918,8.232 2.6608,8.354 2.5138,8.545 C1.6348,9.68 1.5308,11.517 2.1298,13.46 C3.4308,17.689 9.1288,20.231 13.7538,19.532 C16.7108,19.086 18.5598,17.423 19.3308,16.745 C17.6568,17.221 16.4188,17.287 15.1168,17.216" id="Fill-9" fill="#575756"></path>
            <g id="Group-13" transform="translate(4.000000, 26.040700)">
                <mask id="mask-2" fill="white">
                    <use xlink:href="#path-1"></use>
                </mask>
                <g id="Clip-12"></g>
                <path d="M3.1122,0.3201 C1.5432,0.3201 0.6432,0.9931 0.6432,2.1611 C0.6432,3.3301 1.5442,4.0001 3.1122,4.0001 C4.6792,4.0001 5.5772,3.3291 5.5772,2.1611 C5.5772,0.9921 4.6792,0.3201 3.1122,0.3201 M3.1122,3.1511 C2.2532,3.1511 1.8192,2.8161 1.8192,2.1611 C1.8192,1.5061 2.2532,1.1711 3.1122,1.1711 C3.9682,1.1711 4.4032,1.5061 4.4032,2.1611 C4.4032,2.8161 3.9682,3.1511 3.1122,3.1511" id="Fill-11" fill="#1D1D1B" mask="url(#mask-2)"></path>
            </g>
            <path d="M9.8966,26.4448 L9.8966,27.2358 L11.3826,27.2358 C11.3826,27.3128 11.3816,29.6748 11.3816,29.6748 C11.3816,29.9088 11.7326,29.9898 12.0366,29.9898 C12.3376,29.9898 12.6916,29.9088 12.6916,29.6748 L12.6916,27.2358 L14.1776,27.2358 L14.1776,26.4448 L9.8966,26.4448 Z" id="Fill-14" fill="#1D1D1B"></path>
            <g id="Group-18" transform="translate(19.000000, 26.040700)">
                <mask id="mask-4" fill="white">
                    <use xlink:href="#path-3"></use>
                </mask>
                <g id="Clip-17"></g>
                <path d="M3.0789,3.0977 C2.7189,3.0977 2.4689,3.0387 2.3329,2.9247 C2.1579,2.7747 2.1329,2.5537 2.1299,2.3827 L2.1309,0.6607 C2.1309,0.4357 1.7939,0.3547 1.5059,0.3547 C1.2139,0.3547 0.8759,0.4357 0.8759,0.6607 L0.8759,2.3257 C0.8759,2.9637 1.0799,3.4097 1.4869,3.6517 C1.9889,3.9437 2.8999,3.9327 3.7809,3.9247 L4.8759,3.9187 L4.8779,3.7587 L4.8779,3.0977 L3.0789,3.0977 Z" id="Fill-16" fill="#1D1D1B" mask="url(#mask-4)"></path>
            </g>
            <g id="Group-21" transform="translate(0.000000, 25.040700)">
                <mask id="mask-6" fill="white">
                    <use xlink:href="#path-5"></use>
                </mask>
                <g id="Clip-20"></g>
                <path d="M1.7859,3.8401 C1.7859,4.4611 2.3099,4.8821 3.1939,4.9571 L3.1939,1.2071 L5.1869,1.2071 L5.1869,0.3431 L-0.0001,0.3431 L-0.0001,1.2071 L1.7859,1.2071 L1.7859,3.8401 Z" id="Fill-19" fill="#1D1D1B" mask="url(#mask-6)"></path>
            </g>
            <path d="M19.3636,29.9651 L19.3346,29.8241 C19.0426,28.3811 17.4016,26.7341 17.0656,26.4921 C16.9556,26.4141 16.8396,26.3971 16.6856,26.3951 C16.5306,26.3971 16.4126,26.4141 16.3026,26.4921 C15.9666,26.7341 14.3266,28.3811 14.0356,29.8241 L14.0046,29.9651 L15.1646,29.9651 L15.1856,29.8631 C15.2316,29.6561 15.3086,29.4331 15.4106,29.2091 L17.9596,29.2091 C18.0606,29.4331 18.1376,29.6561 18.1836,29.8631 L18.2046,29.9651 L19.3636,29.9651 Z M15.8186,28.4681 C16.0646,28.0981 16.3576,27.7371 16.6856,27.4141 C17.0116,27.7371 17.3086,28.0981 17.5496,28.4681 L15.8186,28.4681 Z" id="Fill-22" fill="#1D1D1B"></path>
        </g>
    </g>
</svg>